<svg xmlns="http://www.w3.org/2000/svg" viewBox="0 0 256 256" fill="#bac1c4"><path d="M236.2227 56.6714H130.4596L95.693 30.5995c-2.98 -2.235 -6.6053 -3.4433 -10.3303 -3.4434H19.7773c-9.5089 0 -17.2173 7.7084 -17.2173 17.2172v167.2534c0 9.5088 7.7084 17.2172 17.2173 17.2172h217.54c8.9015 -0.0068 16.1159 -7.2212 16.1227 -16.1227V73.8886c0 -9.5085 -7.7087 -17.2168 -17.2173 -17.2172Zm2.4597 156.0498c0 0.7539 -0.6112 1.365 -1.3651 1.3651h-217.54c-1.3585 0 -2.4597 -1.1012 -2.4597 -2.4596V44.3733c0 -1.3584 1.1012 -2.4596 2.4597 -2.4596h65.5854c0.5321 0 1.05 0.1727 1.4758 0.4919l36.7342 27.5477c1.2772 0.9579 2.8307 1.4757 4.4273 1.4757h108.2227c1.3584 0.0001 2.4597 1.1013 2.4597 2.4596Z" stroke-width="1"/></svg>
