<svg xmlns="http://www.w3.org/2000/svg" viewBox="0 0 24 24" width="800px" height="800px">
	<path d="M1.445784 11.046L1.452 20.652 1.516392 20.856C1.6553760000000002 21.29628 1.848792 21.621024 2.13972 21.902616000000002C2.434056 22.18752 2.755128 22.36932 3.1827840000000003 22.493184L3.372 22.548000000000002 12 22.548000000000002L20.628 22.548000000000002 20.817216000000002 22.493184C21.259848 22.364976000000002 21.613992 22.158456 21.902616000000002 21.86028C22.181160000000002 21.57252 22.348992 21.282432 22.483608 20.856L22.548000000000002 20.652 22.554216 11.958L22.560456000000002 3.2640000000000002 17.382096 3.2640000000000002L12.20376 3.2640000000000002 11.292 2.352L10.38024 1.44 5.909904 1.44L1.439592 1.44 1.445784 11.046M2.448 4.692L2.448 6.936 12 6.936L21.552 6.936 21.552 5.604L21.552 4.272 16.67388 4.272L11.79576 4.272 10.884 3.36L9.97224 2.448 6.21012 2.448L2.448 2.448 2.448 4.692M2.448 14.174544000000001C2.448 21.090072000000003 2.43588 20.556936 2.600016 20.868000000000002C2.697648 21.053016 2.947512 21.302568 3.1339439999999996 21.401256C3.44316 21.564912 2.684304 21.552 12 21.552C21.315696 21.552 20.55684 21.564912 20.866056 21.401256C21.052488 21.302568 21.302352 21.053016 21.399984000000003 20.868000000000002C21.56412 20.556936 21.552 21.090072000000003 21.552 14.174544000000001L21.552 7.92 12 7.92L2.448 7.92 2.448 14.174544000000001M9.408 10.625328C9.13932 10.718712 8.881752 10.973808 8.796264 11.23116C8.750424 11.369208 8.74332 11.656896 8.782176 11.801232C8.841816 12.022704000000001 9.033024 12.26136 9.250224 12.385392C9.499776 12.527928 9.880728 12.533496000000001 10.146984 12.398520000000001C10.2978 12.322056 10.487952 12.127992 10.568976000000001 11.967888C10.734143999999999 11.641416000000001 10.686288000000001 11.216352 10.452216 10.93068C10.349424 10.805256 10.141632 10.66512 9.990359999999999 10.619232C9.842496 10.574352000000001 9.545712 10.577472 9.408 10.625328M9.687336 11.512656C9.660312 11.53968 9.670896 11.568 9.708 11.568C9.7278 11.568 9.744 11.557848 9.744 11.545416000000001C9.744 11.515152 9.706512 11.49348 9.687336 11.512656M12.578327999999999 15.048792C11.821704 16.22316 11.199144 17.184 11.194824 17.184C11.190479999999999 17.184 10.756992 16.536144 10.231488 15.744336C9.705960000000001 14.952504 9.266736 14.307599999999999 9.255431999999999 14.3112C9.244104 14.314775999999998 8.621496 15.23532 7.871856000000001 16.356863999999998L6.508848 18.396 9.254424 18.402096C10.764479999999999 18.405456 13.235832000000002 18.405456 14.746272 18.402096L17.492568 18.396 15.81312 15.792C14.889408000000001 14.359800000000002 14.093231999999999 13.126248 14.043816 13.050792000000001L13.953984000000002 12.913560000000002 12.578327999999999 15.048792" stroke="none" fill="#36BB13" fill-rule="evenodd" stroke-width="0.024"></path>
</svg>
