<svg xmlns="http://www.w3.org/2000/svg" fill="#bac1c4" width="800" height="800" viewBox="0 0 24 24" xmlns:v="https://vecta.io/nano"><path d="M19.25 4a2.75 2.75 0 0 1 2.745 2.582L22 6.75v10.5a2.75 2.75 0 0 1-2.582 2.745L19.25 20H4.75a2.75 2.75 0 0 1-2.745-2.582L2 17.25V6.75a2.75 2.75 0 0 1 2.582-2.745L4.75 4h14.5zm0 1.5H8.998v13H19.25a1.25 1.25 0 0 0 1.25-1.25V6.75a1.25 1.25 0 0 0-1.25-1.25zm-4.894 3.649a.5.5 0 0 1 0 .707l-1.646 1.646 4.784-.002a.5.5 0 1 1 0 1l-4.785.002 1.646 1.646a.5.5 0 1 1-.707.707l-2.499-2.499a.5.5 0 0 1 0-.707l2.499-2.499a.5.5 0 0 1 .707 0z" fill="#bac1c4" /></svg>
