<svg width="633" height="406" xmlns="http://www.w3.org/2000/svg" fill="none"><path stroke-width="10" stroke="#BAC1C4" d="M183 113.184C67.052 108.191 71.016 206.057 71.016 248M500 112.256c114.09-6.127 18.527 99.025 18.527 162.744M133 248H20v67h113v-67zM290 308H177v67h113v-67zM444 226H330v67h114v-67zM613 275H500v67h113v-67zM133 260c103.664 3.388 120.782 33.412 116.382 48"/><path stroke-width="10" stroke="#BAC1C4" d="M289.455 371.94c52.58-57.364 129.978 46.636 107.976-74.94"/><ellipse fill="#BAC1C4" ry="41.5" rx="42.5" cy="113.5" cx="341.5"/><path fill="#BAC1C4" d="M339 212c-88.078 0-156.023-87.975-159.169-91.772-3.775-5.063-3.775-11.393 0-16.456C182.977 99.975 250.922 12 339 12c88.078 0 156.023 87.975 159.169 91.772 3.775 5.063 3.775 11.393 0 16.456C495.023 124.025 426.449 212 339 212zM207.513 112c18.244 20.886 71.091 73.418 131.487 73.418S452.243 132.886 470.487 112C452.243 91.114 399.396 38.582 339 38.582S225.757 91.114 207.513 112zM339 175.291c-34.602 0-62.913-28.481-62.913-63.291 0-34.81 28.311-63.291 62.913-63.291s62.913 28.48 62.913 63.291c0 34.81-28.94 63.291-62.913 63.291zm0-100c-20.132 0-36.489 16.456-36.489 36.709 0 20.253 16.357 36.709 36.489 36.709 20.132 0 36.489-16.456 36.489-36.709 0-20.253-16.357-36.709-36.489-36.709z"/></svg>
