<svg xmlns="http://www.w3.org/2000/svg" fill="#000000" width="800" height="800" viewBox="0 0 24 24" xmlns:v="https://vecta.io/nano"><path d="M19.25 3.998a2.75 2.75 0 0 1 2.745 2.582l.005.168v10.504a2.75 2.75 0 0 1-2.582 2.745l-.168.005H4.75a2.75 2.75 0 0 1-2.745-2.582L2 17.252V6.748a2.75 2.75 0 0 1 2.582-2.745l.168-.005h14.5zm0 1.5h-3.254v13.004h3.254a1.25 1.25 0 0 0 1.244-1.122l.006-.128V6.748a1.25 1.25 0 0 0-1.122-1.244l-.128-.006zm-4.754 0H4.75A1.25 1.25 0 0 0 3.506 6.62l-.006.128v10.504a1.25 1.25 0 0 0 1.122 1.244l.128.006h9.746V5.498zm-4.145 3.647l2.499 2.499a.5.5 0 0 1 0 .707l-2.499 2.499a.5.5 0 1 1-.707-.707l1.646-1.646-4.784.002a.5.5 0 1 1 0-1l4.785-.002-1.646-1.646a.5.5 0 1 1 .707-.707z" fill="#000000"/></svg>
