<svg xmlns="http://www.w3.org/2000/svg" fill="#000000" width="800" height="800" viewBox="0 0 24 24" xmlns:v="https://vecta.io/nano"><path d="M19.25 3.998A2.75 2.75 0 0 1 22 6.748v10.504a2.75 2.75 0 0 1-2.75 2.75H4.75A2.75 2.75 0 0 1 2 17.252V6.748a2.75 2.75 0 0 1 2.75-2.75h14.5zM8.004 5.497l-3.254.001a1.25 1.25 0 0 0-1.25 1.25v10.504a1.25 1.25 0 0 0 1.25 1.25l3.254-.001V5.497zm11.246.001l-9.746-.001v13.004l9.746.001a1.25 1.25 0 0 0 1.25-1.25V6.748a1.25 1.25 0 0 0-1.25-1.25zm-4.894 3.651a.5.5 0 0 1 0 .707l-1.646 1.645 4.785-.001a.5.5 0 1 1 0 1l-4.785.001 1.646 1.646a.5.5 0 1 1-.707.707l-2.499-2.499a.5.5 0 0 1 0-.707l2.499-2.499a.5.5 0 0 1 .707 0z" fill="#000000" /></svg>
